PathFileType	3	(X/Y/Z)	D:\minhoCalibration\240510\subject2_KPNP\preferred\preferred20.trc
DataRate	CameraRate	NumFrames	NumMarkers	Units	OrigDataRate	OrigDataStartFrame	OrigNumFrames
200.0	200.0	18	10	mm	200.0	581	176	
Frame#	Time	Left_Ankle_Outer1			Left_Ankle_Inner1			Left_Knee_Outer1			Left_Knee_Inner1			Left_Wrist1			Right_Wrist1			Right_Knee_Inner1			Right_Knee_Outer1			Right_Ankle_Inner1			Right_Ankle_Outer1			
		X1	Y1	Z1	X2	Y2	Z2	X3	Y3	Z3	X4	Y4	Z4	X5	Y5	Z5	X6	Y6	Z6	X7	Y7	Z7	X8	Y8	Z8	X9	Y9	Z9	X10	Y10	Z10	
581	2.895	-734.16077	87.991226	-637.34839	-738.16785	92.143929	-581.39703	-592.21899	506.38724	-680.48358	-623.47174	496.57367	-590.42743	-595.37347	960.68958	-772.12146	-782.0708	1101.6178	-516.49457	-585.31104	753.00592	-200.37756	-660.01001	804.711	-168.97575	-758.255	374.1778	-128.76144	-840.49371	415.31207	-84.890305
582	2.9	-734.40936	87.18924	-637.99982	-738.95807	91.041298	-581.7561	-592.82257	506.22803	-680.39868	-625.59607	496.11771	-590.47656	-593.8255	961.49084	-771.79974	-784.20905	1099.0605	-517.20801	-591.58289	745.38428	-202.82738	-667.63	796.00201	-171.48058	-766.05078	363.78329	-146.18208	-849.33704	403.86951	-103.4823
583	2.905	-734.7569	86.52887	-638.4314	-738.74988	90.548325	-582.2428	-594.03046	505.15448	-679.91479	-627.75806	495.58932	-590.50092	-593.2005	961.38989	-771.53333	-786.43024	1096.5133	-517.93683	-598.53064	737.30145	-205.52852	-675.28851	787.04163	-174.6777	-773.75116	354.31104	-163.64897	-858.19794	393.1727	-122.08064
584	2.91	-734.87787	85.631073	-638.18854	-739.92291	90.282593	-581.42645	-594.79901	504.45218	-679.52771	-629.93689	495.0079	-590.474	-591.98633	961.86938	-771.26971	-788.70752	1093.9432	-518.78601	-605.30231	729.31689	-208.18535	-682.96478	777.94281	-178.06186	-781.5434	345.2851	-181.11029	-866.9787	382.9426	-140.66328
585	2.915	-735.07965	85.332375	-638.38672	-740.40601	89.620178	-581.41382	-595.2782	503.84052	-679.25305	-632.08105	494.44202	-590.57074	-590.85242	962.15869	-770.92584	-791.07257	1091.3967	-519.62268	-612.35004	721.23907	-211.30525	-690.87445	768.98309	-181.67612	-785.9267	337.94266	-201.54781	-875.59924	372.95901	-159.53767
586	2.92	-735.31757	84.407448	-637.78101	-740.82648	88.75383	-582.59009	-595.71881	503.31302	-678.9469	-634.04834	493.94342	-590.52612	-589.62805	962.26392	-770.66455	-793.62891	1088.8668	-520.58258	-619.58185	713.27454	-214.6264	-698.87469	760.06757	-185.62646	-796.73236	328.35345	-216.64716	-883.91901	364.24109	-177.2908
587	2.925	-735.91101	84.132301	-638.19415	-741.25281	88.012619	-582.64111	-596.11743	502.91992	-678.69586	-635.88409	493.58713	-590.60638	-589.45642	962.06445	-767.81274	-796.20917	1086.2107	-521.65472	-626.96375	705.18726	-218.10133	-707.06396	751.31146	-189.67082	-804.07532	320.53845	-234.66872	-891.8847	354.87552	-196.98445
588	2.93	-736.06189	83.707375	-638.01263	-740.92975	88.119881	-582.21985	-596.53601	502.70767	-678.47296	-637.39636	493.30219	-590.65582	-587.79608	962.9942	-769.82507	-798.95465	1083.4303	-522.73511	-634.5274	697.04675	-221.93283	-715.27075	742.40643	-194.2751	-811.62268	312.94998	-252.54428	-899.79041	347.72821	-213.84001
589	2.935	-735.95233	83.272194	-637.62506	-741.41321	87.461754	-582.23511	-597.1662	502.58142	-678.23138	-638.68829	493.14838	-590.71204	-586.96588	963.92657	-769.48212	-801.7207	1080.7377	-523.9942	-642.33246	688.94904	-225.96524	-723.66205	733.79449	-199.00629	-818.79584	305.88403	-270.58267	-907.36115	338.88336	-234.11713
590	2.94	-735.93524	83.02446	-637.76306	-741.40759	87.433708	-582.14612	-597.6319	502.69638	-678.1142	-639.66809	493.08063	-590.74048	-585.9447	964.36237	-768.4892	-804.63672	1078.1252	-525.33795	-650.25079	680.79828	-230.32262	-732.05261	725.3219	-204.09001	-825.83887	299.25473	-288.60986	-915.07349	332.01151	-251.0927
591	2.945	-736.11523	83.214081	-638.50317	-741.5777	86.974731	-582.55573	-597.26917	503.4039	-678.59875	-640.51672	493.112	-590.90289	-585.00543	964.78278	-767.36188	-807.54553	1075.5406	-526.73389	-658.43616	672.71802	-234.98692	-740.54688	717.1098	-209.47557	-832.90649	292.9213	-306.43314	-922.42804	325.21362	-269.84488
592	2.95	-736.09845	83.015114	-638.61139	-741.87311	87.466766	-581.9527	-598.46222	503.18509	-678.01196	-641.20941	493.12766	-591.03326	-584.22107	965.26654	-766.39294	-810.565	1073.0413	-528.17957	-666.664	664.66077	-239.82285	-748.99329	708.96021	-215.1705	-839.63556	287.05246	-324.24658	-929.58978	318.06802	-288.95248
593	2.955	-736.05005	82.630859	-638.53699	-742.9729	85.33017	-586.19513	-599.07587	503.43561	-677.8432	-641.78857	493.18445	-591.159	-584.50714	965.56885	-766.14905	-813.62872	1070.611	-529.698	-674.88788	656.55377	-245.17522	-757.52374	701.09882	-221.02837	-846.26752	281.51572	-341.9606	-936.68286	312.21271	-307.28577
594	2.96	-736.1394	82.513405	-638.85376	-741.34351	86.829979	-582.78485	-599.35602	503.86548	-677.79993	-642.33337	493.32907	-591.25232	-581.66168	966.80511	-762.06427	-816.76025	1068.3334	-531.20959	-683.33319	648.68213	-250.66576	-765.96893	693.38354	-226.94855	-852.50482	276.43787	-359.50317	-943.54144	305.46164	-327.07941
595	2.965	-735.94025	82.320938	-638.73169	-741.56415	86.016289	-585.15649	-599.62439	504.22095	-677.68774	-642.86139	493.48471	-591.42188	-580.85205	967.42297	-760.74622	-819.90704	1066.0887	-532.78986	-691.81122	640.93195	-256.63663	-774.42053	685.83527	-233.79446	-858.47504	271.54239	-376.85394	-949.92365	300.91257	-343.91864
596	2.97	-735.91406	82.305038	-638.94318	-742.41321	85.304321	-586.59711	-599.89166	504.56418	-677.53387	-643.42157	493.60788	-591.43121	-580.20654	968.20563	-759.35229	-822.96655	1063.9301	-534.38818	-700.31323	633.14978	-262.67435	-782.86792	678.17279	-240.80702	-863.78528	267.17249	-394.57373	-956.64117	295.78879	-362.51529
597	2.975	-735.90564	82.256744	-639.20599	-742.76532	85.253128	-587.1123	-600.19586	504.73361	-677.31244	-643.97772	493.71536	-591.43036	-579.57678	969.06592	-757.91461	-826.07263	1061.7456	-536.0766	-708.66144	625.58618	-269.29526	-791.57513	671.32227	-247.36539	-869.38043	263.25266	-411.47189	-962.95966	289.94763	-382.47134
598	2.98	-735.92249	82.156784	-639.36066	-741.23749	86.602478	-584.52576	-600.1731	504.99512	-677.07196	-644.30951	493.77945	-591.375	-578.97888	970.26398	-756.21851	-829.05548	1059.5927	-537.88715	-717.18262	618.24103	-276.08994	-800.00916	664.14429	-254.67247	-871.30023	261.11899	-428.75415	-970.74689	284.5834	-404.88507
